<svg width="2016" height="446" viewBox="0 0 2016 446" fill="none" xmlns="http://www.w3.org/2000/svg">
<g filter="url(#filter0_dd_176_86)">
<path fill-rule="evenodd" clip-rule="evenodd" d="M68 385H146C225 385 381 385 538 310.13C695 235.261 851 84.5229 1008 75.5385C1165 65.5559 1321 197.327 1478 225.278C1635 253.229 1791 178.36 1870 141.424L1948 103.49V385H1870C1791 385 1635 385 1478 385C1321 385 1165 385 1008 385C851 385 695 385 538 385C381 385 225 385 146 385H68Z" fill="url(#paint0_linear_176_86)"/>
</g>
<defs>
<filter id="filter0_dd_176_86" x="0" y="0" width="2016" height="446" filterUnits="userSpaceOnUse" color-interpolation-filters="sRGB">
<feFlood flood-opacity="0" result="BackgroundImageFix"/>
<feColorMatrix in="SourceAlpha" type="matrix" values="0 0 0 0 0 0 0 0 0 0 0 0 0 0 0 0 0 0 127 0" result="hardAlpha"/>
<feOffset dy="-3.46963"/>
<feGaussianBlur stdDeviation="23.2902"/>
<feColorMatrix type="matrix" values="0 0 0 0 0.0196078 0 0 0 0 0.458824 0 0 0 0 0.901961 0 0 0 0.22 0"/>
<feBlend mode="normal" in2="BackgroundImageFix" result="effect1_dropShadow_176_86"/>
<feColorMatrix in="SourceAlpha" type="matrix" values="0 0 0 0 0 0 0 0 0 0 0 0 0 0 0 0 0 0 127 0" result="hardAlpha"/>
<feOffset dy="-7"/>
<feGaussianBlur stdDeviation="34"/>
<feColorMatrix type="matrix" values="0 0 0 0 0.0196078 0 0 0 0 0.458824 0 0 0 0 0.901961 0 0 0 0.44 0"/>
<feBlend mode="normal" in2="effect1_dropShadow_176_86" result="effect2_dropShadow_176_86"/>
<feBlend mode="normal" in="SourceGraphic" in2="effect2_dropShadow_176_86" result="shape"/>
</filter>
<linearGradient id="paint0_linear_176_86" x1="67.9999" y1="385" x2="196.595" y2="859.576" gradientUnits="userSpaceOnUse">
<stop stop-color="#000A46"/>
<stop offset="1" stop-color="#0575E6"/>
</linearGradient>
</defs>
</svg>
