<svg width="742" height="736" viewBox="0 0 742 736" fill="none" xmlns="http://www.w3.org/2000/svg">
<g clip-path="url(#clip0_120_16)">
<path d="M404.801 645.304C404.801 645.304 426.696 684.646 412.107 689.888C397.517 695.13 378.759 690.937 374.59 697.227C370.422 703.518 324.568 710.857 323.526 695.13C322.484 679.404 358.24 673.247 373.537 652.643C376.34 648.867 380.311 642.683 380.311 642.683L404.801 645.304Z" fill="#000A46"/>
<path d="M574.679 673.113C574.679 673.113 595.521 716.099 580.932 721.341C566.342 726.583 547.584 722.389 543.415 728.68C539.246 734.97 493.393 742.309 492.351 726.583C491.309 710.857 542.373 681.501 542.373 681.501L549.025 670.725L574.679 673.113Z" fill="#000A46"/>
<path d="M647.192 684.476C647.124 684.172 640.499 653.779 654.029 628.536C667.559 603.294 696.44 592.162 696.73 592.052L698.05 591.553L698.362 592.938C698.431 593.241 705.056 623.634 691.526 648.877C677.996 674.119 649.114 685.252 648.824 685.362L647.504 685.86L647.192 684.476ZM696.24 594.931C690.455 597.435 667.623 608.392 656.195 629.711C644.767 651.033 648.215 676.247 649.315 682.482C655.097 679.985 677.92 669.045 689.359 647.702C700.787 626.382 697.34 601.17 696.24 594.931Z" fill="url(#paint0_linear_120_16)"/>
<path d="M681.186 640.023C656.872 654.739 647.508 683.97 647.508 683.97C647.508 683.97 677.564 689.341 701.879 674.625C726.193 659.908 735.557 630.677 735.557 630.677C735.557 630.677 705.5 625.306 681.186 640.023Z" fill="url(#paint1_linear_120_16)"/>
<path d="M333.917 551.47C331.026 551.47 328.105 551.424 325.238 551.334L325.303 549.239C329.42 549.368 333.621 549.404 337.757 549.347L337.786 551.443C336.498 551.461 335.209 551.47 333.917 551.47ZM350.326 550.984L350.204 548.891C354.326 548.646 358.502 548.302 362.614 547.869L362.832 549.954C358.688 550.391 354.481 550.738 350.326 550.984ZM312.709 550.657C308.552 550.337 304.351 549.917 300.222 549.407L300.477 547.326C304.574 547.831 308.742 548.249 312.868 548.566L312.709 550.657ZM375.278 548.351L374.965 546.279C379.062 545.654 383.189 544.928 387.231 544.12L387.637 546.176C383.564 546.99 379.406 547.722 375.278 548.351ZM287.807 547.585C283.7 546.884 279.554 546.079 275.485 545.191L275.927 543.141C279.965 544.024 284.079 544.822 288.155 545.516L287.807 547.585ZM399.886 543.431L399.385 541.395C403.406 540.395 407.449 539.289 411.403 538.11L411.996 540.121C408.011 541.309 403.937 542.423 399.886 543.431ZM263.288 542.229C259.259 541.151 255.205 539.965 251.238 538.703L251.866 536.704C255.803 537.956 259.826 539.133 263.823 540.202L263.288 542.229ZM423.94 536.252L423.256 534.271C427.158 532.907 431.083 531.431 434.922 529.885L435.696 531.833C431.828 533.39 427.873 534.876 423.94 536.252ZM239.332 534.609C235.419 533.163 231.482 531.601 227.631 529.969L228.44 528.036C232.262 529.656 236.168 531.205 240.051 532.641L239.332 534.609ZM447.21 526.884L446.347 524.976C450.094 523.263 453.861 521.434 457.542 519.541L458.49 521.409C454.781 523.316 450.986 525.158 447.21 526.884ZM469.51 515.416L468.478 513.596C472.072 511.533 475.659 509.364 479.139 507.15L480.252 508.921C476.746 511.153 473.132 513.339 469.51 515.416ZM490.69 501.936L489.497 500.218C492.881 497.84 496.257 495.349 499.533 492.816L500.803 494.478C497.503 497.031 494.1 499.54 490.69 501.936ZM173.022 498.983C169.658 496.525 166.297 493.95 163.033 491.328L164.334 489.69C167.573 492.292 170.908 494.847 174.246 497.286L173.022 498.983ZM510.57 486.564L509.227 484.961C512.381 482.283 515.519 479.493 518.557 476.668L519.972 478.207C516.912 481.055 513.749 483.866 510.57 486.564ZM153.404 483.224C150.271 480.464 147.158 477.593 144.153 474.691L145.596 473.177C148.579 476.058 151.667 478.908 154.776 481.648L153.404 483.224ZM528.988 469.426L527.504 467.954C530.412 464.99 533.288 461.922 536.051 458.837L537.6 460.24C534.815 463.349 531.918 466.439 528.988 469.426ZM135.3 465.744C132.425 462.703 129.586 459.56 126.862 456.402L128.436 455.029C131.14 458.163 133.957 461.281 136.81 464.298L135.3 465.744ZM545.787 450.668L544.177 449.337C546.804 446.121 549.39 442.803 551.866 439.472L553.535 440.727C551.04 444.084 548.434 447.428 545.787 450.668ZM118.857 446.687C116.276 443.406 113.734 440.018 111.302 436.618L112.993 435.393C115.407 438.767 117.929 442.129 120.491 445.387L118.857 446.687ZM560.824 430.44L559.1 429.262C561.424 425.819 563.701 422.276 565.865 418.728L567.642 419.825C565.459 423.4 563.165 426.971 560.824 430.44ZM104.214 426.215C101.943 422.713 99.7201 419.109 97.6068 415.501L99.402 414.436C101.5 418.016 103.705 421.594 105.959 425.069L104.214 426.215ZM573.97 408.905L572.147 407.891C574.147 404.249 576.091 400.507 577.926 396.771L579.795 397.701C577.946 401.465 575.986 405.235 573.97 408.905H573.97ZM585.101 386.237L583.192 385.395C584.853 381.58 586.447 377.672 587.932 373.781L589.878 374.532C588.382 378.454 586.774 382.391 585.101 386.237H585.101ZM80.8121 381.713C79.2143 377.855 77.6842 373.908 76.2645 369.98L78.2236 369.264C79.6321 373.161 81.1505 377.078 82.7356 380.906L80.8121 381.713ZM594.114 362.615L592.135 361.955C593.436 358.013 594.663 353.983 595.783 349.976L597.79 350.544C596.661 354.581 595.423 358.642 594.114 362.615ZM72.2497 358.02C71.0096 354.024 69.8443 349.942 68.7864 345.885L70.8025 345.353C71.8523 349.378 73.0089 353.43 74.2393 357.395L72.2497 358.02ZM600.907 338.315L598.877 337.84C599.81 333.799 600.663 329.671 601.413 325.575L603.462 325.954C602.707 330.083 601.847 334.241 600.907 338.315ZM65.884 333.603C65.0149 329.508 64.2282 325.335 63.5463 321.2L65.6021 320.856C66.2794 324.961 67.06 329.101 67.9225 333.165L65.884 333.603ZM605.449 313.49L603.383 313.206C603.944 309.099 604.417 304.912 604.79 300.759L606.867 300.947C606.49 305.133 606.013 309.352 605.449 313.49ZM61.7765 308.703C61.2849 304.552 60.8814 300.325 60.5766 296.138L62.6558 295.985C62.9575 300.141 63.3585 304.335 63.8465 308.455L61.7765 308.703ZM607.715 288.354L605.633 288.26C605.818 284.105 605.913 279.891 605.913 275.735H607.997C607.997 279.923 607.903 284.168 607.715 288.354ZM59.9451 283.53C59.8739 280.959 59.8378 278.336 59.8372 275.735C59.8372 274.121 59.851 272.511 59.8785 270.903L61.9627 270.94C61.9352 272.535 61.9215 274.134 61.9215 275.735C61.922 278.316 61.9581 280.92 62.0284 283.472L59.9451 283.53ZM62.4573 258.422L60.3771 258.291C60.6371 254.102 60.9964 249.87 61.4437 245.714L63.5157 245.939C63.0715 250.065 62.7158 254.264 62.4573 258.422H62.4573ZM604.567 245.63C604.151 241.496 603.578 239.48 602.974 235.365L605.036 235.058C605.644 239.206 606.166 242.371 606.587 246.536L604.567 245.63ZM65.1385 233.519L63.0786 233.199C63.7172 229.051 64.4591 224.87 65.284 220.771L67.3266 221.186C66.5083 225.254 65.772 229.403 65.1385 233.519H65.1385ZM600.87 223.019C600.075 218.928 599.179 214.811 598.204 210.781L600.229 210.285C601.211 214.346 602.115 218.495 602.916 222.616L600.87 223.019ZM70.0754 208.968L68.0537 208.458C69.0658 204.397 70.1868 200.302 71.3857 196.287L73.3813 196.89C72.1922 200.875 71.0798 204.938 70.0754 208.968ZM594.98 198.68C593.818 194.687 592.548 190.671 591.205 186.742L593.175 186.06C594.529 190.019 595.809 194.067 596.981 198.09L594.98 198.68ZM77.2502 184.945L75.284 184.25C76.6691 180.286 78.1646 176.303 79.7288 172.412L81.6614 173.199C80.1089 177.059 78.6246 181.012 77.2502 184.945ZM586.886 174.991C585.366 171.132 583.737 167.259 582.046 163.48L583.947 162.619C585.652 166.427 587.292 170.33 588.824 174.218L586.886 174.991ZM86.6049 161.673L84.711 160.798C86.4518 156.984 88.3045 153.159 90.2178 149.43L92.07 150.392C90.171 154.092 88.3325 157.888 86.6049 161.673ZM576.686 152.2C574.82 148.498 572.844 144.789 570.811 141.176L572.625 140.143C574.674 143.784 576.664 147.521 578.544 151.252L576.686 152.2ZM98.0444 139.378L96.238 138.332C98.3172 134.7 100.51 131.064 102.755 127.527L104.512 128.655C102.284 132.166 100.107 135.774 98.0444 139.378ZM564.441 130.43C562.238 126.903 559.932 123.389 557.586 119.985L559.298 118.791C561.662 122.22 563.987 125.76 566.205 129.315L564.441 130.43ZM111.46 118.243L109.756 117.035C112.159 113.607 114.671 110.19 117.225 106.879L118.871 108.164C116.338 111.45 113.844 114.841 111.46 118.243ZM550.263 109.864C547.751 106.555 545.136 103.264 542.487 100.085L544.084 98.7385C546.753 101.942 549.389 105.257 551.92 108.592L550.263 109.864ZM126.73 98.4375L125.144 97.0779C127.84 93.8916 130.651 90.7202 133.497 87.6518L135.02 89.0821C132.196 92.1275 129.407 95.2754 126.73 98.4375ZM534.276 90.6706C531.476 87.6047 528.572 84.5659 525.645 81.6397L527.114 80.1521C530.063 83.1013 532.989 86.1626 535.81 89.2515L534.276 90.6706ZM143.722 80.1193L142.265 78.6204C145.245 75.687 148.329 72.787 151.431 70.0011L152.819 71.5655C149.741 74.3299 146.68 77.208 143.722 80.1193V80.1193ZM516.614 73.0112C513.546 70.2115 510.378 67.4502 507.199 64.8041L508.528 63.1884C511.731 65.8546 514.923 68.6369 518.015 71.4581L516.614 73.0112ZM162.291 63.4372L160.975 61.8113C164.199 59.1704 167.53 56.5657 170.877 54.0695L172.119 55.7537C168.797 58.2314 165.49 60.8162 162.291 63.4372H162.291ZM182.281 48.5315L181.118 46.792C184.568 44.4566 188.12 42.1698 191.675 39.9936L192.758 41.7854C189.23 43.9447 185.705 46.2145 182.281 48.5315H182.281ZM203.528 35.5296L202.528 33.6898C206.178 31.6805 209.92 29.7311 213.651 27.8948L214.567 29.7787C210.865 31.6006 207.15 33.5352 203.528 35.5296ZM455.067 30.6715C451.358 28.8127 447.559 27.0168 443.775 25.3341L444.618 23.4165C448.431 25.112 452.26 26.9216 455.997 28.7947L455.067 30.6715ZM225.852 24.5443L225.024 22.6204C228.838 20.9572 232.74 19.362 236.621 17.879L237.361 19.8396C233.51 21.3109 229.638 22.8938 225.852 24.5443ZM432.248 20.5241C428.389 19.0186 424.439 17.5821 420.508 16.2551L421.171 14.2668C425.132 15.6045 429.112 17.0517 433.001 18.5696L432.248 20.5241ZM249.101 15.6629L248.452 13.6704C252.412 12.364 256.454 11.1339 260.462 10.0153L261.02 12.0354C257.041 13.1457 253.031 14.3662 249.101 15.6629H249.101ZM408.613 12.5452C404.638 11.4052 400.583 10.3434 396.562 9.38972L397.04 7.34921C401.093 8.31009 405.178 9.38 409.185 10.5283L408.613 12.5452ZM273.093 8.96432L272.629 6.92021C276.689 5.98696 280.826 5.13665 284.922 4.39334L285.293 6.4564C281.227 7.1946 277.122 8.03825 273.093 8.96432ZM384.379 6.79734C380.321 6.03095 376.187 5.34911 372.091 4.77063L372.38 2.69426C376.507 3.27735 380.674 3.96435 384.764 4.73633L384.379 6.79734ZM297.595 4.51569L297.32 2.43728C301.445 1.88338 305.641 1.41753 309.791 1.05406L309.972 3.14271C305.854 3.50412 301.691 3.96584 297.595 4.51569ZM359.723 3.31267C355.618 2.9236 351.439 2.62362 347.302 2.42243L347.404 0.327637C351.571 0.530874 355.782 0.832906 359.919 1.22509L359.723 3.31267ZM322.4 2.33848L322.312 0.243729C326.143 0.0829852 330.047 0.00108849 333.917 6.10352e-05L334.861 0.00158881L334.855 2.09843L333.917 2.09691C330.076 2.09788 326.201 2.17926 322.4 2.33848Z" fill="url(#paint2_linear_120_16)"/>
<path d="M742 684H222V686H742V684Z" fill="#020938"/>
<path d="M538.204 331.328L548.625 493.833C548.625 493.833 573.637 557.787 572.594 618.595C572.594 618.595 563.215 642.709 570.51 646.903C577.805 651.096 581.974 654.242 577.805 657.387C573.637 660.532 570.51 667.871 573.637 669.968C576.763 672.065 577.805 675.21 576.763 675.21H545.499C545.499 675.21 551.752 659.484 542.373 655.29C532.994 651.096 538.204 640.612 538.204 640.612L468.382 435.122L413.149 623.837C413.149 623.837 422.528 630.128 415.233 633.273C407.938 636.419 404.812 630.128 407.938 636.419C411.064 642.709 406.896 645.854 406.896 646.903C406.896 647.951 375.632 643.758 375.632 643.758C375.632 643.758 391.264 630.128 383.969 626.983C376.674 623.837 373.548 620.692 375.632 618.595C377.716 616.499 386.053 596.579 386.053 596.579C386.053 596.579 390.222 521.092 391.264 517.947C392.306 514.802 391.264 500.124 391.264 492.785C391.264 485.446 390.222 456.09 393.348 448.751C396.475 441.412 399.601 351.248 416.275 340.764C432.949 330.279 538.204 331.328 538.204 331.328Z" fill="#020938"/>
<path d="M478.282 133.7C497.275 133.7 512.672 118.21 512.672 99.1023C512.672 79.9944 497.275 64.5043 478.282 64.5043C459.289 64.5043 443.892 79.9944 443.892 99.1023C443.892 118.21 459.289 133.7 478.282 133.7Z" fill="#FFD2D9"/>
<path d="M501.73 117.449L497.562 147.854L466.298 171.967L457.961 160.435V120.595L501.73 117.449Z" fill="#FFD2D9"/>
<path d="M452.75 156.241C452.75 156.241 485.056 159.387 501.73 147.854L535.078 346.006C535.078 346.006 417.317 355.441 412.107 349.151V287.294L432.949 186.645L452.75 156.241Z" fill="url(#paint3_linear_120_16)"/>
<path d="M498.86 138.38L510.067 147.854C510.067 147.854 555.921 155.193 552.794 167.774L540.289 316.65L544.457 366.974C544.457 366.974 509.025 357.538 481.929 366.974C454.834 376.41 476.361 164.206 476.361 164.206C476.361 164.206 501.201 141.487 498.86 138.38Z" fill="url(#paint4_linear_120_16)"/>
<path d="M457.96 149.856C457.96 149.856 424.612 174.064 420.444 189.791C416.275 205.517 402.728 371.168 402.728 371.168C402.728 371.168 408.98 368.023 412.107 373.265C415.233 378.507 463.171 158.148 457.96 149.856Z" fill="url(#paint5_linear_120_16)"/>
<path d="M443.908 97.5949C443.908 97.5949 440.185 91.9767 441.617 85.9264C442.472 82.4913 442.81 78.9464 442.619 75.4103C442.619 75.4103 445.626 65.6146 448.633 60.1405C451.64 54.6664 450.208 52.3615 459.659 50.6328C469.11 48.9041 465.243 36.5154 490.159 49.9125C490.999 51.0933 492.169 51.9971 493.519 52.5098C494.87 53.0226 496.341 53.1213 497.748 52.7936C502.903 51.7852 504.764 58.988 504.764 58.988C504.764 58.988 508.201 56.9712 509.489 59.8523C510.778 62.7334 519.967 58.1231 519.967 77.5707C519.967 97.0182 509.51 114.39 509.51 114.39C509.51 114.39 510.277 81.6768 493.237 78.3635C476.198 75.0502 457.869 65.3985 453.43 77.7873C451.034 84.7405 447.838 91.3881 443.908 97.5949Z" fill="#2F2E41"/>
<path d="M509.884 105.373C511.74 105.373 513.245 103.354 513.245 100.864C513.245 98.3745 511.74 96.356 509.884 96.356C508.027 96.356 506.523 98.3745 506.523 100.864C506.523 103.354 508.027 105.373 509.884 105.373Z" fill="#FFD2D9"/>
<path d="M368.64 425.082C360.393 420.094 350.45 420.475 346.671 420.856C348.11 424.391 352.429 433.409 360.675 438.401C368.942 443.402 378.871 443.01 382.646 442.631C381.207 439.097 376.887 430.075 368.64 425.082Z" fill="url(#paint6_linear_120_16)"/>
<path d="M407.389 524.078H355.85C352.774 524.078 349.825 525.308 347.65 527.495C345.475 529.683 344.253 532.651 344.253 535.745C344.253 538.839 345.475 541.806 347.65 543.994C349.825 546.182 352.774 547.411 355.85 547.411H407.389C410.463 547.408 413.41 546.178 415.582 543.99C417.754 541.803 418.975 538.837 418.975 535.745C418.975 532.653 417.754 529.687 415.582 527.499C413.41 525.312 410.463 524.081 407.389 524.078Z" fill="url(#paint7_linear_120_16)"/>
<path d="M640.778 400.933H351.812C348.45 400.933 345.122 401.599 342.016 402.893C338.911 404.187 336.089 406.084 333.712 408.475C331.335 410.867 329.449 413.706 328.163 416.83C326.877 419.954 326.215 423.303 326.215 426.685V568.325C326.215 575.155 328.911 581.705 333.712 586.534C338.512 591.364 345.023 594.077 351.812 594.077H640.778C644.139 594.077 647.468 593.411 650.574 592.117C653.679 590.822 656.501 588.926 658.878 586.534C661.255 584.143 663.14 581.304 664.427 578.18C665.713 575.055 666.375 571.707 666.375 568.325V426.685C666.375 423.303 665.713 419.954 664.427 416.83C663.14 413.706 661.255 410.867 658.878 408.476C656.501 406.084 653.679 404.187 650.574 402.893C647.468 401.599 644.139 400.933 640.778 400.933ZM344.662 418.5C345.233 418.396 358.764 416.079 369.968 422.862C381.172 429.643 385.477 442.757 385.654 443.311L386.107 444.725L384.653 444.985C382.579 445.31 380.482 445.465 378.383 445.448C373.294 445.448 365.92 444.601 359.347 440.621C348.143 433.841 343.839 420.728 343.661 420.173L343.208 418.759L344.662 418.5ZM407.389 550.004H355.85C352.091 550.004 348.486 548.502 345.828 545.827C343.17 543.153 341.677 539.527 341.677 535.745C341.677 531.963 343.17 528.336 345.828 525.662C348.486 522.988 352.091 521.486 355.85 521.486H407.389C411.148 521.486 414.753 522.988 417.411 525.662C420.069 528.336 421.563 531.963 421.563 535.745C421.563 539.527 420.069 543.153 417.411 545.827C414.753 548.502 411.148 550.004 407.389 550.004ZM641.894 547.411C641.882 551.533 640.249 555.483 637.352 558.397C634.455 561.312 630.529 562.954 626.432 562.966H587.777C583.68 562.954 579.755 561.312 576.858 558.397C573.96 555.482 572.328 551.533 572.316 547.411V524.078C572.328 519.957 573.96 516.007 576.858 513.093C579.755 510.178 583.68 508.535 587.777 508.523H626.432C630.529 508.535 634.455 510.178 637.352 513.093C640.249 516.007 641.882 519.957 641.894 524.078L641.894 547.411Z" fill="url(#paint8_linear_120_16)"/>
<path d="M600.018 542.874H583.268C582.072 542.874 580.925 543.352 580.079 544.203C579.233 545.054 578.758 546.208 578.758 547.411C578.758 548.614 579.233 549.768 580.079 550.619C580.925 551.47 582.072 551.948 583.268 551.948H600.018C601.214 551.948 602.361 551.47 603.207 550.619C604.053 549.768 604.528 548.614 604.528 547.411C604.528 546.208 604.053 545.054 603.207 544.203C602.361 543.352 601.214 542.874 600.018 542.874ZM600.018 549.356H583.268C583.014 549.356 582.762 549.306 582.527 549.209C582.292 549.111 582.078 548.968 581.898 548.788C581.718 548.607 581.575 548.393 581.478 548.156C581.381 547.92 581.33 547.667 581.33 547.411C581.33 547.156 581.381 546.902 581.478 546.666C581.575 546.43 581.718 546.215 581.898 546.035C582.078 545.854 582.292 545.711 582.527 545.614C582.762 545.516 583.014 545.466 583.268 545.467H600.018C600.272 545.466 600.524 545.516 600.759 545.614C600.994 545.711 601.208 545.854 601.388 546.035C601.568 546.215 601.71 546.43 601.808 546.666C601.905 546.902 601.955 547.156 601.955 547.411C601.955 547.667 601.905 547.92 601.808 548.156C601.71 548.393 601.568 548.607 601.388 548.788C601.208 548.968 600.994 549.111 600.759 549.209C600.524 549.306 600.272 549.356 600.018 549.356Z" fill="url(#paint9_linear_120_16)"/>
<path d="M630.942 542.874H614.191C613.599 542.873 613.011 542.99 612.464 543.218C611.916 543.445 611.418 543.779 610.998 544.201C610.579 544.622 610.246 545.123 610.019 545.673C609.792 546.224 609.675 546.815 609.675 547.411C609.675 548.008 609.792 548.598 610.019 549.149C610.246 549.7 610.579 550.2 610.998 550.622C611.418 551.043 611.916 551.377 612.464 551.605C613.011 551.832 613.599 551.949 614.191 551.948H630.942C632.138 551.948 633.285 551.47 634.131 550.619C634.976 549.768 635.451 548.614 635.451 547.411C635.451 546.208 634.976 545.054 634.131 544.203C633.285 543.352 632.138 542.874 630.942 542.874ZM630.942 549.356H614.191C613.937 549.356 613.685 549.306 613.45 549.209C613.215 549.112 613.002 548.968 612.822 548.788C612.642 548.607 612.499 548.393 612.402 548.156C612.304 547.92 612.254 547.667 612.254 547.411C612.254 547.156 612.304 546.902 612.402 546.666C612.499 546.43 612.642 546.215 612.822 546.035C613.002 545.854 613.215 545.711 613.45 545.614C613.685 545.516 613.937 545.466 614.191 545.467H630.942C631.454 545.468 631.944 545.673 632.306 546.038C632.667 546.402 632.87 546.896 632.87 547.411C632.87 547.926 632.667 548.42 632.306 548.785C631.944 549.149 631.454 549.354 630.942 549.356Z" fill="url(#paint10_linear_120_16)"/>
<path d="M600.018 531.208H583.268C582.072 531.208 580.925 531.686 580.079 532.537C579.233 533.388 578.758 534.542 578.758 535.745C578.758 536.948 579.233 538.102 580.079 538.953C580.925 539.804 582.072 540.282 583.268 540.282H600.018C600.611 540.283 601.198 540.166 601.746 539.938C602.294 539.711 602.792 539.377 603.211 538.955C603.631 538.534 603.964 538.034 604.191 537.483C604.418 536.932 604.535 536.341 604.535 535.745C604.535 535.148 604.418 534.558 604.191 534.007C603.964 533.456 603.631 532.956 603.211 532.534C602.792 532.113 602.294 531.779 601.746 531.551C601.198 531.324 600.611 531.207 600.018 531.208ZM600.018 537.689H583.268C582.755 537.689 582.264 537.484 581.901 537.12C581.539 536.755 581.335 536.26 581.335 535.745C581.335 535.229 581.539 534.735 581.901 534.37C582.264 534.005 582.755 533.8 583.268 533.8H600.018C600.531 533.8 601.022 534.005 601.385 534.37C601.747 534.735 601.951 535.229 601.951 535.745C601.951 536.26 601.747 536.755 601.385 537.12C601.022 537.484 600.531 537.689 600.018 537.689Z" fill="url(#paint11_linear_120_16)"/>
<path d="M630.942 531.208H614.191C613.599 531.207 613.011 531.324 612.464 531.551C611.916 531.779 611.418 532.113 610.998 532.534C610.579 532.956 610.246 533.456 610.019 534.007C609.792 534.558 609.675 535.148 609.675 535.745C609.675 536.341 609.792 536.932 610.019 537.483C610.246 538.034 610.579 538.534 610.998 538.955C611.418 539.377 611.916 539.711 612.464 539.938C613.011 540.166 613.599 540.283 614.191 540.282H630.942C632.138 540.282 633.285 539.804 634.131 538.953C634.976 538.102 635.451 536.948 635.451 535.745C635.451 534.542 634.976 533.388 634.131 532.537C633.285 531.686 632.138 531.208 630.942 531.208ZM630.942 537.689H614.191C613.679 537.689 613.187 537.484 612.825 537.12C612.462 536.755 612.259 536.26 612.259 535.745C612.259 535.229 612.462 534.735 612.825 534.37C613.187 534.005 613.679 533.8 614.191 533.8H630.942C631.454 533.8 631.946 534.005 632.308 534.37C632.671 534.735 632.875 535.229 632.875 535.745C632.875 536.26 632.671 536.755 632.308 537.12C631.946 537.484 631.454 537.689 630.942 537.689Z" fill="url(#paint12_linear_120_16)"/>
<path d="M600.018 519.542H583.268C582.072 519.542 580.925 520.019 580.079 520.87C579.233 521.721 578.758 522.875 578.758 524.078C578.758 525.282 579.233 526.436 580.079 527.287C580.925 528.137 582.072 528.615 583.268 528.615H600.018C601.214 528.615 602.361 528.137 603.207 527.287C604.053 526.436 604.528 525.282 604.528 524.078C604.528 522.875 604.053 521.721 603.207 520.87C602.361 520.019 601.214 519.542 600.018 519.542ZM600.018 526.023H583.268C582.755 526.023 582.264 525.818 581.901 525.453C581.539 525.089 581.335 524.594 581.335 524.078C581.335 523.563 581.539 523.068 581.901 522.704C582.264 522.339 582.755 522.134 583.268 522.134H600.018C600.531 522.134 601.022 522.339 601.385 522.704C601.747 523.068 601.951 523.563 601.951 524.078C601.951 524.594 601.747 525.089 601.385 525.453C601.022 525.818 600.531 526.023 600.018 526.023Z" fill="url(#paint13_linear_120_16)"/>
<path d="M630.942 519.542H614.191C613.599 519.541 613.011 519.657 612.464 519.885C611.916 520.112 611.418 520.447 610.998 520.868C610.579 521.289 610.246 521.79 610.019 522.341C609.792 522.892 609.675 523.482 609.675 524.078C609.675 524.675 609.792 525.265 610.019 525.816C610.246 526.367 610.579 526.868 610.998 527.289C611.418 527.71 611.916 528.044 612.464 528.272C613.011 528.5 613.599 528.616 614.191 528.615H630.942C632.137 528.614 633.282 528.135 634.126 527.284C634.97 526.434 635.445 525.281 635.445 524.078C635.445 522.876 634.97 521.723 634.126 520.873C633.282 520.022 632.137 519.543 630.942 519.542ZM630.942 526.023H614.191C613.679 526.023 613.187 525.818 612.825 525.453C612.462 525.089 612.259 524.594 612.259 524.078C612.259 523.563 612.462 523.068 612.825 522.704C613.187 522.339 613.679 522.134 614.191 522.134H630.942C631.454 522.134 631.946 522.339 632.308 522.704C632.671 523.068 632.874 523.563 632.874 524.078C632.874 524.594 632.671 525.089 632.308 525.453C631.946 525.818 631.454 526.023 630.942 526.023Z" fill="url(#paint14_linear_120_16)"/>
<path d="M549.668 369.071L542.197 393.595C542.197 393.595 540.289 439.315 515.278 433.025C490.266 426.734 522.572 373.265 522.572 373.265L529.867 361.732L549.668 369.071Z" fill="#FFD2D9"/>
<path d="M407.938 369.071L400.468 393.595C400.468 393.595 398.559 439.315 373.548 433.025C348.537 426.734 380.843 373.265 380.843 373.265L388.138 361.732L407.938 369.071Z" fill="#FFD2D9"/>
<path d="M544.457 160.435C544.457 160.435 561.131 156.241 566.342 184.549C571.552 212.856 577.805 293.585 577.805 293.585L552.794 378.507C552.794 378.507 527.783 364.877 522.572 366.974L542.254 293.248L525.699 218.098C525.699 218.098 540.288 160.435 544.457 160.435Z" fill="url(#paint15_linear_120_16)"/>
<path opacity="0.15" d="M520.213 219.532L542.098 292.922L520.213 367.36L532.719 292.922L520.213 219.532Z" fill="#0575E6"/>
<path d="M420.444 218.098L382.927 366.974C382.927 366.974 402.716 373.545 410.011 378.787L420.444 218.098Z" fill="url(#paint16_linear_120_16)"/>
<path d="M111.885 592.237C169.44 592.237 216.098 545.298 216.098 487.395C216.098 429.492 169.44 382.553 111.885 382.553C54.3301 382.553 7.67236 429.492 7.67236 487.395C7.67236 545.298 54.3301 592.237 111.885 592.237Z" fill="#020938"/>
<path d="M111.885 577.559C161.383 577.559 201.508 537.191 201.508 487.395C201.508 437.599 161.383 397.231 111.885 397.231C62.3878 397.231 22.2622 437.599 22.2622 487.395C22.2622 537.191 62.3878 577.559 111.885 577.559Z" fill="url(#paint17_linear_120_16)"/>
<path d="M107.591 540.6V527.477C100.997 527.348 94.1754 525.008 90.1965 521.76L92.9248 513.055C97.6532 516.62 103.388 518.576 109.296 518.641C117.368 518.641 122.825 513.314 122.825 505.908C122.825 498.762 118.391 494.344 109.978 490.446C98.3819 485.249 91.2195 479.272 91.2195 467.968C91.2195 457.183 97.9273 448.998 108.387 447.049V433.926H115.435V446.529C120.691 446.601 125.818 448.179 130.215 451.077L127.373 459.652C123.155 456.748 118.158 455.207 113.048 455.234C104.294 455.234 100.997 461.211 100.997 466.409C100.997 473.165 105.203 476.543 115.095 481.221C126.804 486.678 132.716 493.435 132.716 504.998C132.716 515.263 126.463 524.879 114.753 527.086V540.6H107.591Z" fill="url(#paint18_linear_120_16)"/>
<path d="M221.974 700.652C148.389 711.693 73.5843 711.693 0 700.652V675.49C73.6623 685.415 148.311 685.415 221.974 675.49V700.652Z" fill="#020938"/>
<path d="M221.974 661.861C148.389 672.901 73.5843 672.901 0 661.861V636.699C73.6623 646.623 148.311 646.623 221.974 636.699V661.861Z" fill="#020938"/>
<path d="M221.974 623.069C148.389 634.109 73.5843 634.109 0 623.069V597.907C73.6623 607.832 148.311 607.832 221.974 597.907V623.069Z" fill="#020938"/>
</g>
<defs>
<linearGradient id="paint0_linear_120_16" x1="645.172" y1="591.553" x2="721.626" y2="662.626" gradientUnits="userSpaceOnUse">
<stop stop-color="#000A46"/>
<stop offset="1" stop-color="#0575E6"/>
</linearGradient>
<linearGradient id="paint1_linear_120_16" x1="647.552" y1="629.753" x2="741.818" y2="644.27" gradientUnits="userSpaceOnUse">
<stop stop-color="#71F2F9"/>
<stop offset="1" stop-color="#0575E6"/>
</linearGradient>
<linearGradient id="paint2_linear_120_16" x1="56.4329" y1="6.12735e-05" x2="459.591" y2="644.24" gradientUnits="userSpaceOnUse">
<stop stop-color="#000A46"/>
<stop offset="1" stop-color="#0575E6"/>
</linearGradient>
<linearGradient id="paint3_linear_120_16" x1="411.343" y1="147.854" x2="576.658" y2="308.483" gradientUnits="userSpaceOnUse">
<stop stop-color="#000A46"/>
<stop offset="1" stop-color="#0575E6"/>
</linearGradient>
<linearGradient id="paint4_linear_120_16" x1="468.295" y1="138.511" x2="561.002" y2="141.823" gradientUnits="userSpaceOnUse">
<stop stop-color="#71F2F9"/>
<stop offset="1" stop-color="#0575E6"/>
</linearGradient>
<linearGradient id="paint5_linear_120_16" x1="402.756" y1="149.984" x2="463.689" y2="151.448" gradientUnits="userSpaceOnUse">
<stop stop-color="#71F2F9"/>
<stop offset="1" stop-color="#0575E6"/>
</linearGradient>
<linearGradient id="paint6_linear_120_16" x1="346.447" y1="420.653" x2="358.505" y2="452.09" gradientUnits="userSpaceOnUse">
<stop stop-color="#000A46"/>
<stop offset="1" stop-color="#0575E6"/>
</linearGradient>
<linearGradient id="paint7_linear_120_16" x1="344.291" y1="524.092" x2="419.038" y2="547.205" gradientUnits="userSpaceOnUse">
<stop stop-color="#71F2F9"/>
<stop offset="1" stop-color="#0575E6"/>
</linearGradient>
<linearGradient id="paint8_linear_120_16" x1="326.387" y1="401.044" x2="688.723" y2="462.661" gradientUnits="userSpaceOnUse">
<stop stop-color="#71F2F9"/>
<stop offset="1" stop-color="#0575E6"/>
</linearGradient>
<linearGradient id="paint9_linear_120_16" x1="578.771" y1="542.879" x2="605.039" y2="550.083" gradientUnits="userSpaceOnUse">
<stop stop-color="#71F2F9"/>
<stop offset="1" stop-color="#0575E6"/>
</linearGradient>
<linearGradient id="paint10_linear_120_16" x1="609.515" y1="542.874" x2="612.597" y2="556.951" gradientUnits="userSpaceOnUse">
<stop stop-color="#000A46"/>
<stop offset="1" stop-color="#0575E6"/>
</linearGradient>
<linearGradient id="paint11_linear_120_16" x1="578.598" y1="531.208" x2="581.68" y2="545.284" gradientUnits="userSpaceOnUse">
<stop stop-color="#000A46"/>
<stop offset="1" stop-color="#0575E6"/>
</linearGradient>
<linearGradient id="paint12_linear_120_16" x1="609.688" y1="531.213" x2="635.962" y2="538.42" gradientUnits="userSpaceOnUse">
<stop stop-color="#71F2F9"/>
<stop offset="1" stop-color="#0575E6"/>
</linearGradient>
<linearGradient id="paint13_linear_120_16" x1="578.771" y1="519.547" x2="605.039" y2="526.75" gradientUnits="userSpaceOnUse">
<stop stop-color="#71F2F9"/>
<stop offset="1" stop-color="#0575E6"/>
</linearGradient>
<linearGradient id="paint14_linear_120_16" x1="609.515" y1="519.542" x2="612.598" y2="533.618" gradientUnits="userSpaceOnUse">
<stop stop-color="#000A46"/>
<stop offset="1" stop-color="#0575E6"/>
</linearGradient>
<linearGradient id="paint15_linear_120_16" x1="522.6" y1="160.341" x2="583.099" y2="161.819" gradientUnits="userSpaceOnUse">
<stop stop-color="#71F2F9"/>
<stop offset="1" stop-color="#0575E6"/>
</linearGradient>
<linearGradient id="paint16_linear_120_16" x1="382.946" y1="218.19" x2="424.043" y2="219.117" gradientUnits="userSpaceOnUse">
<stop stop-color="#71F2F9"/>
<stop offset="1" stop-color="#0575E6"/>
</linearGradient>
<linearGradient id="paint17_linear_120_16" x1="21.149" y1="397.231" x2="152.98" y2="607.895" gradientUnits="userSpaceOnUse">
<stop stop-color="#000A46"/>
<stop offset="1" stop-color="#0575E6"/>
</linearGradient>
<linearGradient id="paint18_linear_120_16" x1="90.218" y1="433.987" x2="136.751" y2="435.778" gradientUnits="userSpaceOnUse">
<stop stop-color="#71F2F9"/>
<stop offset="1" stop-color="#0575E6"/>
</linearGradient>
<clipPath id="clip0_120_16">
<rect width="742" height="736" fill="white"/>
</clipPath>
</defs>
</svg>
