<svg width="894" height="600" viewBox="0 0 894 600" fill="none" xmlns="http://www.w3.org/2000/svg">
<g clip-path="url(#clip0_49_94)">
<path d="M760.527 600.53H719.558C718.95 599.429 718.386 598.3 717.863 597.156C713.148 587.062 711.157 575.796 709.251 564.756L706.159 546.827C716.042 554.013 725.92 561.194 735.793 568.37C739.011 570.714 742.301 573.156 745.392 575.796C751.901 581.316 757.52 587.697 759.722 595.801C759.835 596.253 759.948 596.704 760.033 597.156C760.267 598.269 760.432 599.396 760.527 600.53Z" fill="#4286F4"/>
<path d="M766.273 597.156C766.275 597.227 766.27 597.297 766.259 597.367C766.122 598.446 765.866 599.507 765.497 600.53H747.101C746.522 599.446 746.032 598.318 745.633 597.156C745.074 595.604 744.672 594.001 744.433 592.37C743.822 586.83 744.146 581.228 745.393 575.796C745.746 574.031 746.127 572.252 746.508 570.502L748.682 560.506L759.567 577.998C763.209 583.857 766.993 590.309 766.273 597.156Z" fill="#0575E6"/>
<path d="M762.947 423.495H29.4103C21.6602 423.486 14.23 420.403 8.7499 414.923C3.26978 409.443 0.187227 402.012 0.178543 394.262V29.1965C0.187369 21.4465 3.27001 14.0165 8.75012 8.53641C14.2302 3.05636 21.6603 -0.0261798 29.4103 -0.0349121H762.947C770.697 -0.0261761 778.127 3.05636 783.607 8.53641C789.087 14.0164 792.17 21.4465 792.179 29.1965V394.262C792.17 402.012 789.087 409.443 783.607 414.923C778.127 420.403 770.697 423.486 762.947 423.495Z" fill="url(#paint0_linear_49_94)"/>
<path d="M843.466 523.1H109.929C102.179 523.092 94.7492 520.009 89.2691 514.529C83.789 509.049 80.7064 501.619 80.6977 493.868V128.802C80.7066 121.052 83.7892 113.622 89.2693 108.142C94.7494 102.662 102.179 99.5798 109.929 99.571H843.466C851.216 99.5798 858.646 102.662 864.126 108.142C869.606 113.622 872.689 121.052 872.698 128.802V493.868C872.689 501.618 869.607 509.049 864.126 514.529C858.646 520.009 851.216 523.092 843.466 523.1Z" fill="url(#paint1_linear_49_94)"/>
<path d="M843.466 523.1H109.929C102.179 523.092 94.7492 520.009 89.2691 514.529C83.789 509.049 80.7064 501.619 80.6977 493.868V128.802C80.7066 121.052 83.7892 113.622 89.2693 108.142C94.7494 102.662 102.179 99.5798 109.929 99.571H843.466C851.216 99.5798 858.646 102.662 864.126 108.142C869.606 113.622 872.689 121.052 872.698 128.802V493.868C872.689 501.618 869.607 509.049 864.126 514.529C858.646 520.009 851.216 523.092 843.466 523.1ZM109.929 103.806C103.302 103.814 96.9488 106.45 92.2627 111.136C87.5766 115.822 84.9406 122.175 84.933 128.802V493.868C84.9405 500.496 87.5764 506.849 92.2625 511.535C96.9487 516.222 103.302 518.858 109.929 518.865H843.466C850.093 518.858 856.447 516.222 861.133 511.535C865.819 506.849 868.455 500.496 868.462 493.868V128.802C868.455 122.175 865.819 115.822 861.133 111.136C856.447 106.45 850.093 103.814 843.466 103.806H109.929Z" fill="url(#paint2_linear_49_94)" fill-opacity="0.2"/>
<path d="M166.259 459.186H752.82V358.651C752.731 348.05 750.525 337.574 746.332 327.837C742.14 318.1 736.044 309.299 728.404 301.95L728.244 301.794C717.768 291.282 682.756 264.604 646.531 266.866C627.396 268.057 611.013 277.279 597.839 294.277C556.832 347.203 502.965 329.338 474.505 313.978C449.424 300.438 423.81 294.084 398.369 295.095C362.738 296.488 312.588 309.614 276.014 364.236C262.045 385.081 231.666 413.377 166.259 430.006L166.259 459.186Z" fill="url(#paint3_linear_49_94)"/>
<path d="M786.007 461.524H167.388C166.875 461.524 166.382 461.32 166.019 460.957C165.656 460.594 165.452 460.101 165.452 459.588V163.084C165.452 162.57 165.656 162.078 166.019 161.715C166.382 161.352 166.875 161.148 167.388 161.148C167.902 161.148 168.394 161.352 168.757 161.715C169.12 162.078 169.324 162.57 169.324 163.084V457.652H786.007C786.521 457.652 787.013 457.856 787.376 458.219C787.739 458.582 787.943 459.074 787.943 459.588C787.943 460.101 787.739 460.594 787.376 460.957C787.013 461.32 786.521 461.524 786.007 461.524Z" fill="url(#paint4_linear_49_94)"/>
<path d="M400.941 306.353C407.179 306.353 412.235 301.296 412.235 295.059C412.235 288.821 407.179 283.765 400.941 283.765C394.704 283.765 389.647 288.821 389.647 295.059C389.647 301.296 394.704 306.353 400.941 306.353Z" fill="url(#paint5_linear_49_94)"/>
<path d="M626.824 283.765C633.061 283.765 638.118 278.708 638.118 272.471C638.118 266.233 633.061 261.177 626.824 261.177C620.586 261.177 615.529 266.233 615.529 272.471C615.529 278.708 620.586 283.765 626.824 283.765Z" fill="url(#paint6_linear_49_94)"/>
<path d="M515.294 340.235C521.532 340.235 526.588 335.179 526.588 328.941C526.588 322.704 521.532 317.647 515.294 317.647C509.057 317.647 504 322.704 504 328.941C504 335.179 509.057 340.235 515.294 340.235Z" fill="url(#paint7_linear_49_94)"/>
<path d="M286.588 361.412C292.826 361.412 297.882 356.355 297.882 350.118C297.882 343.88 292.826 338.823 286.588 338.823C280.351 338.823 275.294 343.88 275.294 350.118C275.294 356.355 280.351 361.412 286.588 361.412Z" fill="url(#paint8_linear_49_94)"/>
<path d="M738.353 324.706C744.591 324.706 749.647 319.649 749.647 313.412C749.647 307.174 744.591 302.118 738.353 302.118C732.115 302.118 727.059 307.174 727.059 313.412C727.059 319.649 732.115 324.706 738.353 324.706Z" fill="url(#paint9_linear_49_94)"/>
<path d="M873.384 346.07C872.102 344.835 871.106 343.333 870.466 341.671C869.827 340.009 869.56 338.226 869.684 336.45C869.808 334.673 870.319 332.945 871.183 331.388C872.047 329.831 873.242 328.482 874.684 327.436L862.16 285.998L883.72 292.42L892.307 330.786C893.903 333.324 894.512 336.36 894.02 339.317C893.527 342.275 891.967 344.949 889.634 346.833C887.302 348.717 884.359 349.68 881.364 349.539C878.369 349.399 875.53 348.164 873.384 346.07Z" fill="#FFD2D9"/>
<path d="M670.098 99.654C669.87 101.42 670.031 103.215 670.571 104.912C671.111 106.609 672.017 108.167 673.224 109.476C674.432 110.785 675.911 111.814 677.559 112.489C679.207 113.164 680.983 113.47 682.762 113.385L698.892 153.557L711.705 135.067L694.423 99.7538C694.081 96.775 692.659 94.0247 690.426 92.0242C688.193 90.0238 685.303 88.9121 682.305 88.8998C679.306 88.8875 676.408 89.9754 674.158 91.9575C671.908 93.9395 670.464 96.678 670.098 99.654Z" fill="#FFD2D9"/>
<path d="M851.96 582.793H837.109L830.044 525.508L851.963 525.51L851.96 582.793Z" fill="#FFD2D9"/>
<path d="M855.748 597.19L807.86 597.188V596.583C807.861 591.639 809.825 586.899 813.32 583.403C816.816 579.908 821.556 577.944 826.5 577.944H826.501L855.749 577.945L855.748 597.19Z" fill="#4286F4"/>
<path d="M803.361 582.322L789.202 577.839L799.755 521.092L820.652 527.709L803.361 582.322Z" fill="#FFD2D9"/>
<path d="M802.627 597.19L756.973 582.736L757.155 582.159C758.648 577.446 761.951 573.519 766.338 571.241C770.726 568.964 775.838 568.522 780.551 570.014L780.552 570.014L808.436 578.842L802.627 597.19Z" fill="#4286F4"/>
<path d="M857.762 315.189C857.762 315.189 860.473 349.514 851.993 364.05C843.513 378.587 834.479 433.916 834.479 433.916L820.065 544.574L790.211 534.859L815.668 410.88L835.677 313.357L857.762 315.189Z" fill="#030B40"/>
<path d="M785.771 302.818C785.771 302.818 763.735 337.418 771.522 368.3C779.308 399.181 787.788 458.54 787.788 458.54L830.008 559.018L861.481 557.734L830.226 439.267L831.462 360.058C831.462 360.058 853.185 322.203 848.955 310.419C844.724 298.634 785.771 302.818 785.771 302.818Z" fill="#020938"/>
<path d="M868.347 149.026L845.054 133.015L809.608 131.986L797.264 144.087L778.427 153.707L776.682 310.419C776.682 310.419 833.092 337.456 863.439 324.405L878.038 202.328C884.095 178.099 868.347 149.026 868.347 149.026Z" fill="#043A71"/>
<path d="M783.158 195.585H721.027L680.207 125.321L706.75 114.808L729.228 154.794L761.763 151.849L782.078 150.867C785.333 150.709 788.584 151.265 791.602 152.495C794.62 153.725 797.333 155.6 799.551 157.988C801.769 160.376 803.439 163.22 804.443 166.321C805.447 169.421 805.761 172.704 805.364 175.939C804.693 181.357 802.066 186.344 797.977 189.962C793.888 193.58 788.618 195.58 783.158 195.585Z" fill="#043A71"/>
<path d="M830.221 119.081C847.195 119.081 860.955 105.321 860.955 88.3471C860.955 71.3736 847.195 57.6138 830.221 57.6138C813.248 57.6138 799.488 71.3736 799.488 88.3471C799.488 105.321 813.248 119.081 830.221 119.081Z" fill="#FFD2D9"/>
<path d="M867.253 81.3546C866.309 74.6074 861.739 68.2008 855.24 66.1567C852.659 58.6598 845.82 53.1405 838.265 50.7345C831.269 48.5037 823.73 48.6585 816.831 51.1747C809.932 53.6909 804.063 58.4261 800.146 64.6374C799.568 65.5465 797.79 67.7798 797.84 68.8646C797.903 70.2423 800.011 71.6649 801.069 72.5335C803.694 74.5618 806.524 76.3086 809.513 77.7453C820.565 83.4748 816.886 92.479 816.736 102.683C816.663 107.641 818.319 111.875 822.547 114.707C828.649 118.794 837.381 117.168 844.021 115.528C851.554 113.666 857.818 107.048 862.114 100.667C865.92 95.0153 868.197 88.1019 867.253 81.3546Z" fill="#020938"/>
<path d="M866.946 188.437L893.007 317.552L854.588 319.654L866.946 188.437Z" fill="#043A71"/>
<path d="M893.854 600.248C893.855 600.469 893.812 600.689 893.728 600.894C893.645 601.099 893.521 601.286 893.365 601.443C893.209 601.6 893.024 601.725 892.819 601.811C892.615 601.896 892.396 601.941 892.174 601.942H692.692C692.245 601.942 691.816 601.764 691.499 601.448C691.183 601.131 691.005 600.702 691.005 600.255C691.005 599.807 691.183 599.378 691.499 599.062C691.816 598.746 692.245 598.568 692.692 598.568H892.174C892.619 598.569 893.046 598.746 893.361 599.061C893.676 599.376 893.853 599.803 893.854 600.248Z" fill="#CCEEFD"/>
</g>
<defs>
<linearGradient id="paint0_linear_49_94" x1="0.579152" y1="0.207525" x2="841.202" y2="151.995" gradientUnits="userSpaceOnUse">
<stop stop-color="#71F2F9" stop-opacity="0.2"/>
<stop offset="1" stop-color="#0575E6" stop-opacity="0.2"/>
</linearGradient>
<linearGradient id="paint1_linear_49_94" x1="81.0983" y1="99.8135" x2="921.721" y2="251.601" gradientUnits="userSpaceOnUse">
<stop stop-color="#71F2F9" stop-opacity="0.2"/>
<stop offset="1" stop-color="#0575E6" stop-opacity="0.2"/>
</linearGradient>
<linearGradient id="paint2_linear_49_94" x1="75.779" y1="99.571" x2="281.995" y2="719.513" gradientUnits="userSpaceOnUse">
<stop stop-color="#000A46"/>
<stop offset="1" stop-color="#0575E6"/>
</linearGradient>
<linearGradient id="paint3_linear_49_94" x1="166.556" y1="266.841" x2="758.186" y2="440.952" gradientUnits="userSpaceOnUse">
<stop stop-color="#71F2F9"/>
<stop offset="1" stop-color="#0575E6"/>
</linearGradient>
<linearGradient id="paint4_linear_49_94" x1="161.586" y1="161.148" x2="296.046" y2="609.115" gradientUnits="userSpaceOnUse">
<stop stop-color="#000A46"/>
<stop offset="1" stop-color="#0575E6"/>
</linearGradient>
<linearGradient id="paint5_linear_49_94" x1="389.507" y1="283.765" x2="405.976" y2="310.242" gradientUnits="userSpaceOnUse">
<stop stop-color="#000A46"/>
<stop offset="1" stop-color="#0575E6"/>
</linearGradient>
<linearGradient id="paint6_linear_49_94" x1="615.389" y1="261.177" x2="631.859" y2="287.654" gradientUnits="userSpaceOnUse">
<stop stop-color="#000A46"/>
<stop offset="1" stop-color="#0575E6"/>
</linearGradient>
<linearGradient id="paint7_linear_49_94" x1="503.86" y1="317.647" x2="520.329" y2="344.124" gradientUnits="userSpaceOnUse">
<stop stop-color="#000A46"/>
<stop offset="1" stop-color="#0575E6"/>
</linearGradient>
<linearGradient id="paint8_linear_49_94" x1="275.154" y1="338.823" x2="291.624" y2="365.301" gradientUnits="userSpaceOnUse">
<stop stop-color="#000A46"/>
<stop offset="1" stop-color="#0575E6"/>
</linearGradient>
<linearGradient id="paint9_linear_49_94" x1="726.919" y1="302.118" x2="743.388" y2="328.595" gradientUnits="userSpaceOnUse">
<stop stop-color="#000A46"/>
<stop offset="1" stop-color="#0575E6"/>
</linearGradient>
<clipPath id="clip0_49_94">
<rect width="893.647" height="600" fill="white"/>
</clipPath>
</defs>
</svg>
